<svg width="512" height="512" viewBox="0 0 512 512" fill="none" xmlns="http://www.w3.org/2000/svg" xmlns:xlink="http://www.w3.org/1999/xlink" class="h-full w-full" id="iconWithBackground"><rect id="r4" width="512" height="512" x="0" y="0" rx="64" fill="#27d51a" stroke="#ffffff" stroke-width="0" stroke-opacity="100%" paint-order="stroke"></rect><defs><linearGradient id="linearGradient" gradientUnits="userSpaceOnUse" gradientTransform="rotate(0)" style="transform-origin: center center;"><stop stop-color="#71ff3d"></stop><stop offset="1" stop-color="#73ff00"></stop></linearGradient><radialGradient id="glare" cx="0" cy="0" r="1" gradientUnits="userSpaceOnUse" gradientTransform="translate(256) rotate(90) scale(512)"><stop stop-color="white"></stop><stop offset="1" stop-color="white" stop-opacity="0"></stop></radialGradient><clipPath id="clip"><use xlink:href="#r4"></use></clipPath></defs><svg xmlns="http://www.w3.org/2000/svg" xmlns:xlink="http://www.w3.org/1999/xlink" aria-hidden="true" role="img" x="56" y="56" class="iconify iconify--cil" width="400" height="400" viewBox="0 0 512 512" style="color: rgb(255, 255, 255);"><path fill="currentColor" d="M161.846 320h192l4.923-32h-192l-4.923 32z"></path><path fill="currentColor" d="M467.122 16L450.7 128h-29.525L439.49 16h-32.425l-35.321 216H155.819a48.051 48.051 0 0 0-47.152 39.019l-9.354 49.106A88 88 0 1 0 188.673 432H314.05a144 144 0 0 0 142.589-123.889L499.464 16ZM104 464a56 56 0 1 1 56-56a56.063 56.063 0 0 1-56 56Zm320.963-160.433A111.266 111.266 0 0 1 400 359.585A113.582 113.582 0 0 1 371.477 384a111.226 111.226 0 0 1-57.427 16H191.633a87.325 87.325 0 0 0-5.657-24h159.255l4.923-32H164.333q-2.626-2.476-5.451-4.735a87.882 87.882 0 0 0-27.783-14.99L139.532 280l.571-2.994A16.015 16.015 0 0 1 155.819 264h243.117l17.006-104h30.068Z"></path></svg></svg>