<?xml version="1.0" standalone="no"?>
<!DOCTYPE svg PUBLIC "-//W3C//DTD SVG 20010904//EN"
 "http://www.w3.org/TR/2001/REC-SVG-20010904/DTD/svg10.dtd">
<svg version="1.0" xmlns="http://www.w3.org/2000/svg"
 width="512.000000pt" height="512.000000pt" viewBox="0 0 512.000000 512.000000"
 preserveAspectRatio="xMidYMid meet">
<metadata>
Created by potrace 1.14, written by Peter Selinger 2001-2017
</metadata>
<g transform="translate(0.000000,512.000000) scale(0.100000,-0.100000)"
fill="#000000" stroke="none">
<path d="M525 5109 c-16 -5 -43 -11 -60 -14 -16 -3 -66 -23 -111 -45 -101 -49
-222 -162 -264 -245 -8 -17 -18 -32 -21 -35 -4 -3 -20 -41 -35 -85 l-29 -80 0
-2025 c0 -1114 4 -2045 8 -2070 5 -24 15 -60 24 -80 8 -19 16 -40 17 -45 6
-34 76 -134 134 -193 59 -60 174 -138 215 -146 6 -2 24 -8 38 -14 73 -30 172
-31 2124 -31 2217 -1 2046 -6 2203 70 161 78 298 253 336 429 12 55 14 387 15
2065 0 1913 -1 2003 -19 2069 -31 117 -86 211 -170 296 -91 91 -153 126 -315
178 -32 11 -4056 12 -4090 1z"/>
</g>
</svg>
